<svg xmlns="http://www.w3.org/2000/svg" viewBox="0 0 39.33 42.22">
  <defs>
    <style>
      .cls-2{fill:#ffdd67}.cls-3{fill:#eba352}
    </style>
  </defs>
  <g id="Layer_2" data-name="Layer 2">
    <g id="Layer_1-2" data-name="Layer 1">
      <path fill="#d99b57" d="M30.53 17.82a29.1 29.1 0 0 1-4.86-5.14c-.63-.92-2.68-.77-3.38 1l-11 4.22L4 14a2.26 2.26 0 0 0-3.2 1.15 2.76 2.76 0 0 0 .92 3.59l1.13.63a2.47 2.47 0 0 0-2.54 1.34 2.75 2.75 0 0 0 .92 3.59l2.53 1.48a2.27 2.27 0 0 0-3.24 1.13 2.75 2.75 0 0 0 .92 3.59s12.75 7.89 17.12 10.22c3.45 1.9 10.28 2.81 14.58-2.4 1.41-1.83-2.61-20.5-2.61-20.5Z"/>
      <path d="M35.81 17.82a13 13 0 0 1-4.93-6.69c-.42-1.06-2-1.27-2.89.49a4.9 4.9 0 0 0 .64 5.5l.35.42s.21.77.56 1.69c-1.9-.42-4 .63-5.49 2.61s-5.21 5.56-6.76 7.6c-1.9 2.47-1.41 6 .7 7.54 0 0 11.06 8.1 18.39-1.83 5.77-7.75 1.69-15.78-.57-17.33Z" class="cls-2"/>
      <path d="M32.08 20.78a2.73 2.73 0 0 1 .57 3.73 2.44 2.44 0 0 1-3.53.78L11.58 12.68A2.75 2.75 0 0 1 11 8.94a2.42 2.42 0 0 1 3.52-.77Z" class="cls-2"/>
      <path d="m23 19.37-11.2-8.1a2 2 0 0 1-.8-2.18 2.71 2.71 0 0 0 .63 3.52l11.2 8.1c1.08.85 1.29-.49.17-1.34Z" class="cls-3"/>
      <path d="M26.38 23.25a2.74 2.74 0 0 1 .56 3.75 2.42 2.42 0 0 1-3.52.77L5.88 15.07a2.73 2.73 0 0 1-.57-3.73 2.43 2.43 0 0 1 3.53-.77Z" class="cls-2"/>
      <path d="M19.61 23.53 6.09 13.74a2.08 2.08 0 0 1-.85-2.19 2.83 2.83 0 0 0 .64 3.67l13.59 9.65c1.06.84 1.27-.57.14-1.34Z" class="cls-3"/>
      <path d="M25.25 28.88a2.74 2.74 0 0 1 .56 3.74 2.42 2.42 0 0 1-3.52.77L4.75 20.71A2.72 2.72 0 0 1 4.19 17a2.43 2.43 0 0 1 3.52-.78Z" class="cls-2"/>
      <path d="M16.94 28 5 19.44a2.19 2.19 0 0 1-.77-2.39 2.83 2.83 0 0 0 .42 3.8l12.12 8.53c1.08.84 1.29-.5.17-1.38Z" class="cls-3"/>
      <path d="M24.75 35.22c1.13.85-6.9 1.69-8 .85L4.33 27.12a2.73 2.73 0 0 1-.57-3.73 2.43 2.43 0 0 1 3.52-.78Z" class="cls-2"/>
      <path d="M30.88 19.8a6.15 6.15 0 0 1-1.48-3.6l-.35-.42a4.9 4.9 0 0 1-1.12-3.94 4.66 4.66 0 0 0 .63 5.28l.35.42a1.83 1.83 0 0 0 .28 1.13Zm8.39 8.1s-1.2 6.2-6.13 9.93c-4.37 3.31-11.13.42-14.37-1.69-3.38-2.33-5.07-3.45-13.25-9.65-1.55-1.2-2-2-1.76-3.24a2.76 2.76 0 0 0 .43 3.94l.84.57s9.79 7.18 13.1 9.43c3 2.12 10.85 5.43 15.78 1.48a14 14 0 0 0 5.36-10.77Z" class="cls-3"/>
      <path fill="#42ade2" d="m18.34 1.06 2 7.75-6.5-4.16Zm15.78 1.48L31 9.65l7.4-1.9ZM23.7 0l2.11 8.59L30 .63Z"/>
    </g>
  </g>
</svg>
