<svg xmlns="http://www.w3.org/2000/svg" viewBox="0 0 39.33 38.08">
  <defs>
    <style>
      .cls-1{fill:#f7b600}.cls-2{fill:#ffdd7d}.cls-4{fill:#42ade2}.cls-5{fill:#ff8736}.cls-6{fill:#ed4c5c}.cls-7{fill:#c28fef}
    </style>
  </defs>
  <g id="Layer_2" data-name="Layer 2">
    <g id="Layer_1-2" data-name="Layer 1">
      <path d="m0 38.09 5.65-1.97-4.27-1.97L0 38.09z" class="cls-1"/>
      <path d="M16.35 21.93 8.4 13.92 7.09 17.6l9.26 4.33z" class="cls-2"/>
      <path d="m7.09 17.6-1.44 4.14 17.59 8.2.86-.26-7.75-7.75-9.26-4.33z" class="cls-1"/>
      <path d="m4.27 25.87 13.13 6.11 5.84-2.04-17.59-8.21-1.38 4.14z" class="cls-2"/>
      <path d="m2.82 30.01 8.67 4.07 5.91-2.1-13.13-6.11-1.45 4.14z" class="cls-1"/>
      <path d="m2.82 30.01-1.44 4.14 4.27 1.97 5.84-2.04-8.67-4.07z" class="cls-2"/>
      <path fill="#493816" d="M19.63 18.52c4.4 4.33 6.7 9.19 5.13 10.77s-6.51-.66-11-5.06S7.09 15 8.67 13.46s6.5.72 10.96 5.06Z"/>
      <path d="M14.12 7.55c-1-1.51.06-2.17 1.51-1.9-1.38-1.65-.53-2.83 1.64-2.37.66.13-.26 1.25-.85 1.25 1.77 1.31.78 2.76-1.12 2.47 1.7 2.26-1.18 1.67-2.5 1.8-.32 1.71 1.65 3.68 1 3.68-1.46 0-3.8-5.48.32-4.93Z" class="cls-4"/>
      <path d="M27.91 10.7c-1 .46-3.75-3.87-.33-3.94-2-1.77-1.71-2.62.92-2.69-3-3 1.77-4.07 2.23-2.49.13.46-1.44-.4-2 .46s3.71 3.54-.73 3.34c1.64 1.65 1.71 2.43-.85 2.7.36.52 1.41 2.36.76 2.62Z" class="cls-5"/>
      <path d="m29 21 1-.86A11.58 11.58 0 0 0 31.58 22c.53-2.37.4-3.75 3.09-2.17-1.51-4.07 1-2.56 3.41-1.44-.13-1.05 0-.92 1.06-1.25.91 3.48-1.58 2.43-3.55 1.31 1.18 3.15-.07 3-2.56 1.91-.07 1.31-.46 2.82-1.25 2.95S29 21 29 21Z" class="cls-6"/>
      <path d="M21.67 11.23c-1.18 1.57-3.09 2.43-4.47 3.77s-2.29 5.38-2.29 5.38.52-4.14 1.9-5.71 3.09-2.5 4.07-4.14c1.71-3 .13-7-2.1-9.26A13.41 13.41 0 0 0 20.22 0c2.17 2.69 4.01 7.88 1.45 11.23Z" class="cls-7"/>
      <path d="M23.7 14.58a19.16 19.16 0 0 0-4.13 4.79c-1.05 1.51-4.4 3.41-4.4 3.41s3.15-2.16 4.13-3.78a19.15 19.15 0 0 1 4.21-5.45c3.67-2.82 9-2.56 13.13-1.05-.26.59-.72 1.84-.72 1.84s-8.74-2.34-12.22.24Z" class="cls-5"/>
      <path d="m.79 7.44 1.86-1.86 1.86 1.86-1.86 1.85ZM31 14.25a30.87 30.87 0 0 0-2.49 4.86 8.46 8.46 0 0 1-3.35 3.74c-1.71.85-5.45.59-5.45.59s3.74-.06 5.32-1.11a8.8 8.8 0 0 0 3-4.6c1.18-3.28 2.63-6.83 6-8.28.2.6.66 1.84.66 1.84A8 8 0 0 0 31 14.25Z" class="cls-4"/>
      <path d="m3.397 13.262 1.86-1.86 1.86 1.86-1.86 1.86z" class="cls-5"/>
      <path d="m8.115 4.478 1.86-1.86 1.86 1.86-1.86 1.86z" class="cls-6"/>
      <path d="m28.37 26.728 1.859-1.86 1.86 1.86-1.86 1.86z" class="cls-7"/>
      <path d="m24.227 33.083 1.86-1.86 1.86 1.86-1.86 1.86z" class="cls-6"/>
      <path d="m32.361 34.545 1.86-1.86 1.86 1.86-1.86 1.86z" class="cls-5"/>
      <path d="M31.1 6.45 33 4.59l1.86 1.86L33 8.31Zm3.1 19.64 1.85-1.86 1.86 1.86L36.05 28Z" class="cls-4"/>
      <path d="m11.193 17.594 1.86-1.86 1.859 1.86-1.86 1.86z" class="cls-6"/>
    </g>
  </g>
</svg>
