<svg xmlns="http://www.w3.org/2000/svg" viewBox="0 0 30.81 42.58"><defs><style>.cls-1{fill:#ffdd67}.cls-2{fill:#eba352}</style></defs><g id="Layer_2" data-name="Layer 2"><g id="Layer_1-2" data-name="Layer 1"><path d="M18.1 16.25s2.9 1.53 1.9-4.46c-.71-4.31.79-8.66 3.08-10.5 3.75-2.93 8.51-.23 7.32 1.77-4 6.82-.51 10.27.23 15.51s-1.39 12-4.12 17.65c-1.72 3.53-4.69 7.67-10.5 6L8 39.82Z" class="cls-1"/><path d="M15.42 40.87c5.82 1.71 8.43-2.55 10.15-6.07 2.73-5.66 4.27-10.38 3.8-15.77-.55-5.87-2.68-6.65.36-17A1.6 1.6 0 0 0 29.5.74a2 2 0 0 1 1 2.2c-2.29 7.77-.67 10.3 0 15.61s-1.32 12-4 17.67c-1.72 3.53-4.69 7.67-10.5 6l-8-2.4.31-1Z" class="cls-2"/><path d="m6.37 19.42 9.94 2.92c3.5 1 5.29-5.06 1.79-6.09l-9.94-2.92c-3.5-1.03-5.29 5.06-1.79 6.09Z" class="cls-1"/><path d="m5.88 18.21 9.94 2.92c2.39.7 3.91-1.89 3.65-3.87 1.46 2-.31 6-3.11 5.17l-10-2.94a2.56 2.56 0 0 1-1.85-2.22 2.78 2.78 0 0 0 1.37.94Z" class="cls-2"/><path d="m3.5 25.27 11.91 3.5a3.18 3.18 0 1 0 1.79-6.09l-12-3.52C1.09 17.94-.7 24 3.5 25.27Z" class="cls-1"/><path d="m2.83 23.93 12 3.52a3.17 3.17 0 0 0 4.07-3.75 3.2 3.2 0 0 1-3.46 5.07l-12-3.52a3 3 0 0 1-2.27-2.34 3.76 3.76 0 0 0 1.66 1.02Z" class="cls-2"/><path d="m2.83 31.69 10.09 3c3.5 1 5.29-5.06 1.79-6.09l-10.09-3c-3.57-1.05-5.36 5.04-1.79 6.09Z" class="cls-1"/><path d="m2.3 30.39 10.15 3c2.38.7 4-1.88 3.67-3.94 1.46 2-.24 6-3.18 5.14l-10.09-3A2.56 2.56 0 0 1 1 29.4a1.9 1.9 0 0 0 1.3.99Z" class="cls-2"/><path d="M2.09 38.09 8.6 40c3.79 1.11 5.58-5 1.8-6.09L3.88 32c-3.78-1.11-5.57 5-1.79 6.09Z" class="cls-1"/><path d="m1.54 36.86 6.51 1.92c2.52.74 4.19-1.82 3.81-3.9 1.6 2.06-.18 6-3.26 5.12l-6.51-1.91a2.61 2.61 0 0 1-2-2.26 2.55 2.55 0 0 0 1.45 1.03Z" class="cls-2"/></g></g></svg>