<svg xmlns="http://www.w3.org/2000/svg" baseProfile="tiny" version="1.2" viewBox="0 0 1459 251">
  <path fill="#fff" d="M0 181.26v-.77q.05.01.1.01.1.01.14-.08 16.18-35.4 31.18-68.27c4.58-10.02 9.12-21.14 13.84-31.73 6.63-14.85 15.03-28.62 26.37-39.88C96.27 16.07 130.61-.27 165.34.24c24.26.36 48.24 8.31 67.94 22.01 20.71 14.39 38.93 35.44 49.45 58.66q13.8 30.45 8.96 62.47c-4.66 30.77-22.5 58.24-45.63 78.6-4.62 4.07-10.06 7.29-15.54 10.53q-16.63 9.87-33.15 15.84c-4.11 1.49-9.07 2.14-13.62 2.14q-74.77.02-149.46.01-.54 0-.54-.55v-68.66q0-.97-.98-.95L0 181.26Zm61-28.04v69.51q0 .52.52.52 60.71-.01 122.7 0c3.56.01 6.63-1.22 9.76-2.63q12.16-5.46 25.88-13.41 6.17-3.58 11.83-9.04c19.8-19.14 34.53-44.56 33.94-72.67-.63-29.94-17.81-56.23-40.81-75.4-17-14.16-38.29-22.43-60.41-22.62-26.28-.23-52.7 12.63-71.88 30.85-14.57 13.84-22 31.85-29.73 50.13-6.47 15.32-13.19 29.53-19.91 44.25a.14.13 10.8 0 0 .13.19l17.2-.44q.78-.02.78.76Z"/>
  <path fill="#f4b610" d="m217.62 170.74-17.26 17.25a.34.34 0 0 1-.48 0l-29.56-29.57a.34.34 0 0 0-.58.24l.01 41.75a.34.34 0 0 1-.34.34h-24.33a.34.34 0 0 1-.34-.34l.02-42.01a.34.34 0 0 0-.58-.24l-29.68 29.71a.34.34 0 0 1-.48 0l-17.13-17.14a.34.34 0 0 1 0-.48l29.7-29.68a.34.34 0 0 0-.24-.58l-42.01.01a.34.34 0 0 1-.34-.34v-24.32a.34.34 0 0 1 .34-.34l41.75.01a.34.34 0 0 0 .24-.58L96.76 84.87a.34.34 0 0 1 0-.48l17.25-17.25a.34.34 0 0 1 .48 0l29.69 29.69a.34.34 0 0 0 .58-.24l-.01-42a.34.34 0 0 1 .34-.34h24.33a.34.34 0 0 1 .34.34l-.02 42.01a.34.34 0 0 0 .58.24l29.69-29.7a.34.34 0 0 1 .48 0l17.13 17.13a.34.34 0 0 1 0 .48l-29.71 29.68a.34.34 0 0 0 .24.58l42.01-.01a.34.34 0 0 1 .34.34v24.32a.34.34 0 0 1-.34.34l-42.01-.01a.34.34 0 0 0-.24.58l29.71 29.69a.34.34 0 0 1 0 .48Zm1046.76 12.17c-7.44 7.69-17.83 10.33-28.26 11.06q-13.38.94-29.34.32-10.93-.42-19.61-2.62c-13.09-3.31-22.08-14.45-24.26-27.4q-1.21-7.21-1.51-14.41-1.14-27.47.73-50.04c1.9-23.05 16.2-34.91 38.6-36.49q13.91-.98 29.87-.46c17.75.58 33.97 4.11 41.23 21.94q4.41 10.85 4.55 25.03.17 17.8.13 34.28-.03 11.46-2.27 22.28a.44.43-67.6 0 0 .18.45l12.64 8.78q.47.33.15.8l-9.57 13.95q-.37.55-.92.17l-11.25-7.75q-.59-.4-1.09.11Zm-50.32-36.12 9.52-14.12q.33-.48.81-.15l25.82 17.58a.28.28 0 0 0 .44-.21q.5-5.6.58-11.12.24-17.79-.38-32.43c-.46-10.88-3.91-20.55-16.26-21.52q-16.33-1.29-31.49.06c-9.64.85-14.33 7.07-15.72 15.99q-.87 5.59-.88 10.38-.02 16.33.1 31.25c.06 8.42.25 14.3 2.78 20.99 2.31 6.13 7.44 8.06 13.36 8.67q8.88.92 20.66.85c7.82-.04 13.59-.28 19.77-5.09a.36.36 0 0 0-.02-.59l-28.91-19.58q-.57-.39-.18-.96Z"/>
  <path fill="#fff" d="M371.75 152.29v40.46q0 .5-.5.5h-24q-.5 0-.5-.5V64.31q0-.5.5-.51 32.56-.22 66.81.15c19.33.21 32.76 8.37 35.34 28.98 1.07 8.52 1.22 17.67.51 26.24-.91 10.87-4.14 22.3-14.49 27.92q-7.53 4.08-17.79 4.31-23.82.54-45.28.3-.6-.01-.6.59Zm52.91-37q.46-10.02-.4-18.33c-.94-9.09-6.55-12.12-14.78-12.16q-18.42-.1-37.21-.04-.52 0-.52.52v44.42q0 .48.48.49 19.14.29 35.77-.25 5.29-.18 9.69-1.91c5.08-2 6.72-7.44 6.97-12.74Z"/>
  <rect width="25.24" height="129.5" x="1117.76" y="63.75" fill="#f4b610" rx=".34"/>
  <rect width="22" height="19" x="1432.25" y="63.75" fill="#fff" rx=".36"/>
  <path fill="#fff" d="M1063.75 119.81q0 24.44.01 48.82c0 3.67 1.28 7.72 5.43 8.5q3.77.71 7.66-.06c7.68-1.53 6.54-12.87 6.38-18.49a.32.32 0 0 1 .32-.33h17.5q.55 0 .58.54.65 10.9-.78 18.16-2.84 14.35-18.41 16.7-14.24 2.15-25.58-.57c-11.29-2.72-15.4-11.05-15.38-21.78q.04-25.47.02-51.52 0-.53-.53-.53h-10.72q-.5 0-.5-.5V103a.5.5 0 0 1 .5-.5H1041q.5 0 .5-.5V82.76a.25.24-90 0 1 .24-.25l21.26-.01q.75 0 .75.75V102a.5.5 0 0 0 .5.5h33.25q.5 0 .5.5v15.75q0 .5-.5.5h-33.2q-.55 0-.55.56Zm-577.44-5.36c3.61-6.28 8.28-10.89 15.63-12.38 11.68-2.38 26.41-.33 30.66 12.77 1.58 4.87 1.69 9.99 1.86 15.13q.12 3.74 0 7.41-.02.62-.64.62h-19.61q-.65 0-.6-.64.63-7.79-.67-12.78c-1.64-6.32-9.34-6.47-14.42-5.42-8.31 1.72-11.46 7.92-11.47 15.84q-.02 28.87-.08 57.73 0 .52-.51.52h-21.21q-.5 0-.5-.5V103q0-.5.5-.5h21.1q.6 0 .54.6l-1.19 11.15q-.16 1.55.61.2Zm141.39 50.57c-1.16 11.34-4.79 22.3-16.51 26.4q-5.72 2-12.11 2.55-16.06 1.38-30.36-.5-6.47-.84-12.01-3.66c-11.39-5.78-13.26-20.49-13.57-31.8q-.28-9.73-.12-19.51c.12-8.14 1.15-17.88 5.41-24.72 5.46-8.76 14.76-11.2 24.91-11.91q12.3-.87 25.49 0c10.82.71 20.81 3.89 25.57 14.36 3.67 8.08 4.01 17.73 4.15 26.95q.17 11.88-.85 21.84Zm-49.96-45.85c-10.43 1.21-11.75 9.68-12.1 18.29q-.48 11.78.15 22.75c.51 8.95 2.64 15.96 13.33 16.8q8.15.63 15.05-.31c8.11-1.11 10.67-7.41 11.28-14.65q.99-11.84.39-24.86c-.39-8.45-1.57-16.71-11.86-17.97q-8.14-.99-16.24-.05Zm87.05 5.35c-.33 6.04-.3 12.64 7.65 13.19 10.03.68 20.26.86 30.12 1.76q8.99.82 13.48 3.73c9.22 5.99 10.51 18.89 8.89 28.98-2.21 13.8-11.33 19.88-24.11 21.36q-18.06 2.11-36.01-.06c-9.78-1.18-18.27-5.1-21.2-15.29q-1.64-5.69-1.32-12.81.03-.63.66-.63h21.36q.75 0 .71.75c-.54 9.78 2.72 12.77 12.07 13.31q8.48.48 15.68-.22c5.3-.51 9.89-2.34 10.6-8.47.98-8.47-.89-13.9-10.29-14.05q-9.76-.17-18.52-.61-11.49-.59-19.42-3.35c-8.08-2.82-11.35-9.26-11.98-17.31q-.79-10.08.83-17.13c2.34-10.16 10.88-13.84 20.26-15.09q11.47-1.53 27.23-.99 8.13.27 15.15 1.92c12.88 3.03 15.37 12.12 15.65 23.64q.02.6-.58.6h-20.64q-.52 0-.54-.51c-.19-5.05-1.41-9.34-7.24-9.96q-9.25-.98-19.54-.13c-4.61.39-8.64 1.94-8.95 7.37Zm101 56.37a.28.28 0 0 0-.54.11v50.75a.25.25 0 0 1-.25.25h-22.25a.25.25 0 0 1-.25-.25V103q0-.5.5-.5h20.93q.67 0 .64.68l-.65 12.05q-.07 1.15.51.15c4.2-7.32 8.98-11.82 17.87-13.15q10.38-1.56 20.61-.07c14.64 2.13 22.19 11.02 24.1 25.6q1.91 14.49.79 31.53c-.91 13.92-3.98 29.38-19.79 33.56q-7.63 2.01-17.83 1.66c-10.99-.38-19.9-2.82-24.39-13.62Zm.34-47.51q-1.42 13.04-.13 26.87c1.49 16.12 11.46 17.26 25.06 16.36 10.18-.67 13.38-7.3 14.12-16.37q.98-12.04-.05-25.06c-.52-6.66-2.65-13.79-9.93-15.46q-7.83-1.79-17.18-.45c-8.04 1.16-11.11 6.91-11.89 14.11Zm98.91 19.11q-.36 7.33.77 14.03 1.59 9.45 11.13 10.89 8.25 1.24 18.02.1c7.63-.89 9.4-5.79 9.29-12.69a.56.56 0 0 1 .56-.57h20.75q.7 0 .7.7-.05 9.25-2.49 15.38c-3.68 9.25-13.04 12.41-22.28 13.44q-11.46 1.28-24.63.48c-12.59-.78-25.36-3.56-30.33-16.42q-3.24-8.37-3.65-20.77-.51-15.28.41-25.06c.55-5.82 1.81-11.99 4.73-17.05 5.26-9.13 16.03-12.18 26.28-13.03q15.42-1.29 28.01.87c8.54 1.47 16.02 5.67 19.77 13.72q3.37 7.21 3.8 16.24.5 10.35.34 18.99a.26.26 0 0 1-.26.26h-60.41q-.49 0-.51.49Zm.59-22.83q-.45 4.11-.4 8.06.01.53.53.53h38.22q.54 0 .54-.54.07-4.67-.6-9.64-1.12-8.31-9.05-9.45-7.12-1.02-16.28-.43c-7.58.49-12.11 3.49-12.96 11.47Zm155.84 48.91q-4.51 12.85-19.49 14.83-19.15 2.52-36-.23c-17.31-2.83-23.4-14.72-24.5-30.44q-1.24-17.62.28-32.57c1.6-15.63 9.81-25.24 25.68-27.63q13.36-2.02 29.42-.32c11.05 1.17 20.8 5.28 23.82 17.05q1.84 7.13 1.57 14.83-.02.66-.69.66h-20.26q-.63 0-.59-.62c.41-6.54-1.11-13.35-8.8-14.53q-9.17-1.4-18.03.04c-7.84 1.28-9.64 8.33-10.07 15.11q-.93 14.87.22 27.75.36 4.02 2.06 8.15 2.02 4.89 7.67 5.81 9.11 1.5 18.62.28 6.65-.86 8.19-6.08 1.38-4.69 1.16-11.58a.56.56 0 0 1 .56-.58h20.75q.6 0 .62.6.53 11.73-2.19 19.47Zm367.46-31.61q.16-9.31-.02-18.2c-.12-6.02-3.05-10.95-9.51-12.05q-8.53-1.46-17.58-.04c-6.24.98-7.98 5.95-7.77 11.57q.03.76-.73.76h-21.12q-.67 0-.67-.67.02-5.95.95-10.38c2.22-10.59 11.08-14.45 20.85-15.59q15.18-1.78 31.2-.18 4.94.5 9.88 1.97c13.58 4.06 16.78 15.38 16.81 28.16q.06 30.47.03 60.66a.28.28 0 0 1-.28.28h-21.27q-.56 0-.52-.56l.75-9.71q.25-3.21-1.13-.3-4.45 9.41-15.68 11.02-12.3 1.77-24.74-.08c-13.56-2.01-19.76-10.1-20.36-23.45-.33-7.42-.06-15.09 3.71-21.39 6.83-11.43 23.72-10.99 35.1-10.79q6.06.11 11.34 1.38 7.15 1.73 10.14 7.73.59 1.2.62-.14Zm-29.54 6.4c-8.32 1.1-9.14 6.84-8.94 13.67.16 5.45 1.93 9.74 7.81 10.87q8.01 1.54 19.06.5c9.99-.95 13.14-6.66 11.72-16.36q-.99-6.79-7.85-8.27-9.45-2.05-21.8-.41Z"/>
  <rect width="22" height="90.74" x="1432.25" y="102.51" fill="#fff" rx=".31"/>
  <rect width="21.74" height="23.74" x="1293.25" y="169.5" fill="#f4b610" rx=".29"/>
</svg>
