<svg xmlns="http://www.w3.org/2000/svg" viewBox="0 0 39.33 39.33">
  <g data-name="Layer 2">
    <g data-name="Layer 1">
      <path fill="#ffe54d" d="M13.52 0c0 10.39-5.59 19.67-13.52 19.67 7.93 0 13.52 9.28 13.52 19.66C13.52 29 19.11 19.67 27 19.67c-7.89 0-13.48-9.28-13.48-19.67Z"/>
      <path fill="#6adbc6" d="M32.57 0c0 5.16-2.82 9.83-6.76 9.83 3.94 0 6.76 4.67 6.76 9.84 0-5.17 2.83-9.84 6.76-9.84-3.93 0-6.76-4.67-6.76-9.83Z"/>
      <path fill="#ff73c0" d="M29.5 19.67c0 5.16-2.83 9.83-6.76 9.83 3.93 0 6.76 4.67 6.76 9.83 0-5.16 2.83-9.83 6.76-9.83-3.93 0-6.76-4.67-6.76-9.83Z"/>
    </g>
  </g>
</svg>
